<?xml version="1.0" encoding="UTF-8"?>
<svg id="Layer_2" data-name="Layer 2" xmlns="http://www.w3.org/2000/svg" viewBox="0 0 2000 2101.26">
  <defs>
    <style>
      .cls-1 {
        fill: none;
        stroke: #fff;
        stroke-linecap: round;
        stroke-miterlimit: 10;
        stroke-width: 16px;
      }

      .cls-2, .cls-3 {
        font-family: DINCondensed-Bold, 'DIN Condensed';
        font-size: 324.61px;
        font-weight: 700;
      }

      .cls-2, .cls-3, .cls-4 {
        fill: #10284b;
      }

      .cls-3 {
        opacity: .5;
      }

      .cls-4, .cls-5 {
        stroke-width: 0px;
      }

      .cls-5 {
        fill: #ffcc04;
      }
    </style>
  </defs>
  <polygon class="cls-4" points="641.96 1191.37 961.69 1022.57 657.06 1217.29 641.96 1191.37 641.96 1191.37"/>
  <g>
    <polygon class="cls-4" points="1025.73 997.92 1051.08 980.59 1053.78 985.43 1025.73 997.92"/>
    <polygon class="cls-4" points="1067.98 969.03 1093.32 951.7 1100.53 964.61 1072.48 977.1 1067.98 969.03"/>
    <polygon class="cls-4" points="1110.22 940.14 1135.57 922.81 1147.29 943.79 1119.23 956.28 1110.22 940.14"/>
    <polygon class="cls-4" points="1152.47 911.26 1177.81 893.92 1194.04 922.97 1165.99 935.46 1152.47 911.26"/>
    <polygon class="cls-4" points="1194.71 882.37 1220.06 865.04 1240.79 902.15 1212.74 914.65 1194.71 882.37"/>
    <polygon class="cls-4" points="1236.96 853.48 1262.3 836.15 1287.54 881.34 1259.49 893.83 1236.96 853.48"/>
    <polygon class="cls-4" points="1279.2 824.59 1304.55 807.26 1334.29 860.52 1306.24 873.01 1279.2 824.59"/>
    <polygon class="cls-4" points="1321.44 795.7 1346.79 778.37 1381.04 839.7 1352.99 852.19 1321.44 795.7"/>
  </g>
  <text class="cls-3" transform="translate(558.26 1900.07) rotate(22.21)"><tspan x="0" y="0">G</tspan></text>
  <text class="cls-3" transform="translate(752.55 1971.62) rotate(10.27)"><tspan x="0" y="0">R</tspan></text>
  <text class="cls-3" transform="translate(957.04 2001.44) rotate(-1.47)"><tspan x="0" y="0">O</tspan></text>
  <text class="cls-3" transform="translate(1163.22 1989.18) rotate(-13.28)"><tspan x="0" y="0">U</tspan></text>
  <text class="cls-3" transform="translate(1362.39 1934.67) rotate(-25.01)"><tspan x="0" y="0">P</tspan></text>
  <text class="cls-2" transform="translate(545.67 1893.77) rotate(23.02)"><tspan x="0" y="0">G</tspan></text>
  <text class="cls-2" transform="translate(738.9 1968.06) rotate(11.08)"><tspan x="0" y="0">R</tspan></text>
  <text class="cls-2" transform="translate(944.2 2001.03) rotate(-.93)"><tspan x="0" y="0">O</tspan></text>
  <text class="cls-2" transform="translate(1149.28 1991.36) rotate(-12.46)"><tspan x="0" y="0">U</tspan></text>
  <text class="cls-2" transform="translate(1349.2 1939.68) rotate(-24.2)"><tspan x="0" y="0">P</tspan></text>
  <text class="cls-3" transform="translate(461.12 528.34) rotate(-43.54)"><tspan x="0" y="0">S</tspan></text>
  <text class="cls-3" transform="translate(579.48 421.49) rotate(-31.73)"><tspan x="0" y="0">Z</tspan></text>
  <text class="cls-3" transform="translate(696.17 351.58) rotate(-20.07)"><tspan x="0" y="0">Y</tspan></text>
  <text class="cls-3" transform="translate(838.8 299.34) rotate(-5.68)"><tspan x="0" y="0">M</tspan></text>
  <text class="cls-3" transform="translate(1044.04 285.17) rotate(8.75)"><tspan x="0" y="0">C</tspan></text>
  <text class="cls-3" transform="translate(1201.17 313.51) rotate(20.68)"><tspan x="0" y="0">Z</tspan></text>
  <text class="cls-3" transform="translate(1327.67 363.02) rotate(32.57)"><tspan x="0" y="0">A</tspan></text>
  <text class="cls-3" transform="translate(1460.16 450.86) rotate(45.5)"><tspan x="0" y="0">K</tspan></text>
  <text class="cls-2" transform="translate(453.21 537.52) rotate(-44.5)"><tspan x="0" y="0">S</tspan></text>
  <text class="cls-2" transform="translate(569.74 428.71) rotate(-32.7)"><tspan x="0" y="0">Z</tspan></text>
  <text class="cls-2" transform="translate(685.26 356.81) rotate(-21.04)"><tspan x="0" y="0">Y</tspan></text>
  <text class="cls-2" transform="translate(826.97 302.15) rotate(-6.64)"><tspan x="0" y="0">M</tspan></text>
  <text class="cls-2" transform="translate(1031.92 284.54) rotate(7.77)"><tspan x="0" y="0">C</tspan></text>
  <text class="cls-2" transform="translate(1189.5 310.2) rotate(19.7)"><tspan x="0" y="0">Z</tspan></text>
  <text class="cls-2" transform="translate(1316.86 357.56) rotate(31.6)"><tspan x="0" y="0">A</tspan></text>
  <text class="cls-2" transform="translate(1450.78 443.12) rotate(44.53)"><tspan x="0" y="0">K</tspan></text>
  <path class="cls-4" d="m1019.8,524.95v324.02c0,6.56-5.32,11.89-11.89,11.89s-11.87-5.32-11.87-11.89v-324.02h23.75Z"/>
  <path class="cls-4" d="m1019.8,848.97v626.08h-23.75v-626.08c0,6.56,5.32,11.89,11.87,11.89s11.89-5.32,11.89-11.89Z"/>
  <path class="cls-4" d="m845.61,1011.91h-352.32v-23.75h352.24c-.63,7.76-.63,15.68.08,23.75Z"/>
  <path class="cls-4" d="m1522.55,988.16v23.75h-676.94c-.71-8.08-.71-15.99-.08-23.75h677.02Z"/>
  <path class="cls-5" d="m1170.3,1011.91c-4.67,66.5-49.95,125.18-115.9,144.65-3.73,1.2-7.6,2.14-11.56,3.02-3.87.88-7.85,1.59-11.64,2.06-3.79.55-7.6.94-11.4,1.26h-.24c-7.91.55-15.76.55-23.51-.08-47.12-3.49-90.25-27.4-118.29-64.77-4.28-5.69-8.24-11.62-11.72-17.96-.27-.45-.51-.92-.75-1.39-7.4-13.41-12.99-28.11-16.43-43.83-1.65-7.67-2.77-15.35-3.24-22.96-.71-8.07-.71-15.98-.08-23.75,4.67-66.59,49.97-125.24,115.92-144.73,3.71-1.18,7.58-2.14,11.56-3,3.87-.88,7.83-1.59,11.62-2.06,3.81-.57,7.6-.96,11.42-1.28v11.89c0,6.56,5.32,11.89,11.87,11.89s11.89-5.32,11.89-11.89v-11.8c56.82,4.18,107.89,38.17,133.6,89.46,5.99,11.97,10.6,24.87,13.58,38.57,1.67,7.69,2.77,15.35,3.24,22.96.71,7.99.71,15.92.08,23.75Z"/>
  <circle class="cls-4" cx="1007.92" cy="433.92" r="75.2"/>
  <circle class="cls-4" cx="1007.92" cy="1566.08" r="75.2"/>
  <circle class="cls-4" cx="1624.44" cy="1000.01" r="75.2"/>
  <circle class="cls-4" cx="391.36" cy="1000.01" r="75.2"/>
  <circle class="cls-4" cx="550.23" cy="1261.67" r="93.97"/>
  <ellipse class="cls-4" cx="1427.66" cy="773.5" rx="46.38" ry="45.86"/>
  <path class="cls-5" d="m316.81,421.26c-128.56,74.03-276.38,217.06-174.75,371.13,40,60.67,100.12,104.78,161.41,142.45-62.21-34.19-123.06-75.03-166.62-132.17-50.46-67.02-58.33-142.96-21.64-218.5,36.67-74.37,99.4-131.9,166.36-178.83,6.4-4.33,12.38-8.36,19.15-12.45,0,0,16.08,28.38,16.08,28.38h0Z"/>
  <path class="cls-5" d="m1699.64,1075.21c74.36,74.94,125.08,183.26,106,290.22-31.7,176.36-223.59,290.47-373.81,360.02,0,0-13.01-29.91-13.01-29.91,64.45-26.79,127.44-57.47,185.58-95.64,85.24-55.98,167.05-133.53,189.23-236.8,22.59-104.02-24.12-211.74-93.99-287.9h0Z"/>
  <path class="cls-1" d="m967.28,889.3c-35.09,17.8-60.13,52.77-69.12,91.07"/>
  <polygon class="cls-4" points="636.93 1182.73 961.69 1022.57 662.09 1225.94 636.93 1182.73 636.93 1182.73"/>
  <g>
    <polygon class="cls-4" points="1025.73 997.92 1051.08 980.59 1053.78 985.43 1025.73 997.92"/>
    <polygon class="cls-4" points="1067.98 969.03 1093.32 951.7 1100.53 964.61 1072.48 977.1 1067.98 969.03"/>
    <polygon class="cls-4" points="1110.22 940.14 1135.57 922.81 1147.29 943.79 1119.23 956.28 1110.22 940.14"/>
    <polygon class="cls-4" points="1152.47 911.26 1177.81 893.92 1194.04 922.97 1165.99 935.46 1152.47 911.26"/>
    <polygon class="cls-4" points="1194.71 882.37 1220.06 865.04 1240.79 902.15 1212.74 914.65 1194.71 882.37"/>
    <polygon class="cls-4" points="1236.96 853.48 1262.3 836.15 1287.54 881.34 1259.49 893.83 1236.96 853.48"/>
    <polygon class="cls-4" points="1279.2 824.59 1304.55 807.26 1334.29 860.52 1306.24 873.01 1279.2 824.59"/>
    <polygon class="cls-4" points="1321.44 795.7 1346.79 778.37 1381.04 839.7 1352.99 852.19 1321.44 795.7"/>
  </g>
  <text class="cls-3" transform="translate(558.26 1900.07) rotate(22.21)"><tspan x="0" y="0">G</tspan></text>
  <text class="cls-3" transform="translate(752.55 1971.62) rotate(10.27)"><tspan x="0" y="0">R</tspan></text>
  <text class="cls-3" transform="translate(957.04 2001.44) rotate(-1.47)"><tspan x="0" y="0">O</tspan></text>
  <text class="cls-3" transform="translate(1163.22 1989.18) rotate(-13.28)"><tspan x="0" y="0">U</tspan></text>
  <text class="cls-3" transform="translate(1362.39 1934.67) rotate(-25.01)"><tspan x="0" y="0">P</tspan></text>
  <text class="cls-2" transform="translate(545.67 1893.77) rotate(23.02)"><tspan x="0" y="0">G</tspan></text>
  <text class="cls-2" transform="translate(738.9 1968.06) rotate(11.08)"><tspan x="0" y="0">R</tspan></text>
  <text class="cls-2" transform="translate(944.2 2001.03) rotate(-.93)"><tspan x="0" y="0">O</tspan></text>
  <text class="cls-2" transform="translate(1149.28 1991.36) rotate(-12.46)"><tspan x="0" y="0">U</tspan></text>
  <text class="cls-2" transform="translate(1349.2 1939.68) rotate(-24.2)"><tspan x="0" y="0">P</tspan></text>
  <text class="cls-3" transform="translate(461.12 528.34) rotate(-43.54)"><tspan x="0" y="0">S</tspan></text>
  <text class="cls-3" transform="translate(579.48 421.49) rotate(-31.73)"><tspan x="0" y="0">Z</tspan></text>
  <text class="cls-3" transform="translate(696.17 351.58) rotate(-20.07)"><tspan x="0" y="0">Y</tspan></text>
  <text class="cls-3" transform="translate(838.8 299.34) rotate(-5.68)"><tspan x="0" y="0">M</tspan></text>
  <text class="cls-3" transform="translate(1044.04 285.17) rotate(8.75)"><tspan x="0" y="0">C</tspan></text>
  <text class="cls-3" transform="translate(1201.17 313.51) rotate(20.68)"><tspan x="0" y="0">Z</tspan></text>
  <text class="cls-3" transform="translate(1327.67 363.02) rotate(32.57)"><tspan x="0" y="0">A</tspan></text>
  <text class="cls-3" transform="translate(1460.16 450.86) rotate(45.5)"><tspan x="0" y="0">K</tspan></text>
  <text class="cls-2" transform="translate(453.21 537.52) rotate(-44.5)"><tspan x="0" y="0">S</tspan></text>
  <text class="cls-2" transform="translate(569.74 428.71) rotate(-32.7)"><tspan x="0" y="0">Z</tspan></text>
  <text class="cls-2" transform="translate(685.26 356.81) rotate(-21.04)"><tspan x="0" y="0">Y</tspan></text>
  <text class="cls-2" transform="translate(826.97 302.15) rotate(-6.64)"><tspan x="0" y="0">M</tspan></text>
  <text class="cls-2" transform="translate(1031.92 284.54) rotate(7.77)"><tspan x="0" y="0">C</tspan></text>
  <text class="cls-2" transform="translate(1189.5 310.2) rotate(19.7)"><tspan x="0" y="0">Z</tspan></text>
  <text class="cls-2" transform="translate(1316.86 357.56) rotate(31.6)"><tspan x="0" y="0">A</tspan></text>
  <text class="cls-2" transform="translate(1450.78 443.12) rotate(44.53)"><tspan x="0" y="0">K</tspan></text>
  <path class="cls-4" d="m1019.8,524.95v324.02c0,6.56-5.32,11.89-11.89,11.89s-11.87-5.32-11.87-11.89v-324.02h23.75Z"/>
  <path class="cls-4" d="m1019.8,848.97v626.08h-23.75v-626.08c0,6.56,5.32,11.89,11.87,11.89s11.89-5.32,11.89-11.89Z"/>
  <path class="cls-4" d="m845.61,1011.91h-352.32v-23.75h352.24c-.63,7.76-.63,15.68.08,23.75Z"/>
  <path class="cls-4" d="m1522.55,988.16v23.75h-676.94c-.71-8.08-.71-15.99-.08-23.75h677.02Z"/>
  <path class="cls-5" d="m1170.3,1011.91c-4.67,66.5-49.95,125.18-115.9,144.65-3.73,1.2-7.6,2.14-11.56,3.02-3.87.88-7.85,1.59-11.64,2.06-3.79.55-7.6.94-11.4,1.26h-.24c-7.91.55-15.76.55-23.51-.08-47.12-3.49-90.25-27.4-118.29-64.77-4.28-5.69-8.24-11.62-11.72-17.96-.27-.45-.51-.92-.75-1.39-7.4-13.41-12.99-28.11-16.43-43.83-1.65-7.67-2.77-15.35-3.24-22.96-.71-8.07-.71-15.98-.08-23.75,4.67-66.59,49.97-125.24,115.92-144.73,3.71-1.18,7.58-2.14,11.56-3,3.87-.88,7.83-1.59,11.62-2.06,3.81-.57,7.6-.96,11.42-1.28v11.89c0,6.56,5.32,11.89,11.87,11.89s11.89-5.32,11.89-11.89v-11.8c56.82,4.18,107.89,38.17,133.6,89.46,5.99,11.97,10.6,24.87,13.58,38.57,1.67,7.69,2.77,15.35,3.24,22.96.71,7.99.71,15.92.08,23.75Z"/>
  <circle class="cls-4" cx="1007.92" cy="433.92" r="75.2"/>
  <circle class="cls-4" cx="1007.92" cy="1566.08" r="75.2"/>
  <circle class="cls-4" cx="1624.44" cy="1000.01" r="75.2"/>
  <circle class="cls-4" cx="391.36" cy="1000.01" r="75.2"/>
  <circle class="cls-4" cx="550.23" cy="1261.67" r="93.97"/>
  <ellipse class="cls-4" cx="1427.66" cy="773.5" rx="46.38" ry="45.86"/>
  <path class="cls-5" d="m316.81,421.26c-128.56,74.03-276.38,217.06-174.75,371.13,40,60.67,100.12,104.78,161.41,142.45-62.21-34.19-123.06-75.03-166.62-132.17-50.46-67.02-58.33-142.96-21.64-218.5,36.67-74.37,99.4-131.9,166.36-178.83,6.4-4.33,12.38-8.36,19.15-12.45,0,0,16.08,28.38,16.08,28.38h0Z"/>
  <path class="cls-5" d="m1699.64,1075.21c74.36,74.94,125.08,183.26,106,290.22-31.7,176.36-223.59,290.47-373.81,360.02,0,0-13.01-29.91-13.01-29.91,64.45-26.79,127.44-57.47,185.58-95.64,85.24-55.98,167.05-133.53,189.23-236.8,22.59-104.02-24.12-211.74-93.99-287.9h0Z"/>
  <path class="cls-1" d="m967.28,889.3c-35.09,17.8-60.13,52.77-69.12,91.07"/>
</svg>
