<?xml version="1.0" encoding="UTF-8"?>
<svg id="Header" xmlns="http://www.w3.org/2000/svg" viewBox="0 0 1151.64 1030.67">
  <defs>
    <style>
      .cls-1 {
        opacity: .5;
      }

      .cls-2 {
        fill: #10284b;
        stroke-width: 0px;
      }
    </style>
  </defs>
  <g>
    <path class="cls-2" d="m435.49,182.25h-5.6v-1.26c0-1.28-.3-2.39-.91-3.32-.6-.93-1.62-1.4-3.05-1.4-.77,0-1.39.15-1.87.44-.48.29-.86.66-1.15,1.1-.29.48-.49,1.02-.6,1.62-.11.6-.17,1.23-.17,1.89,0,.77.03,1.41.08,1.92.05.51.19.97.41,1.37.22.4.54.75.96,1.04.42.29,1,.59,1.73.88l4.28,1.7c1.24.48,2.25,1.03,3.02,1.67.77.64,1.37,1.38,1.81,2.22.4.88.68,1.88.82,2.99.15,1.12.22,2.39.22,3.81,0,1.65-.16,3.17-.49,4.58-.33,1.41-.86,2.61-1.59,3.59-.77,1.02-1.78,1.83-3.02,2.42-1.24.58-2.76.88-4.56.88-1.35,0-2.62-.24-3.79-.71-1.17-.48-2.18-1.13-3.02-1.98-.84-.84-1.51-1.82-2-2.94-.49-1.12-.74-2.33-.74-3.65v-2.09h5.6v1.76c0,1.02.3,1.95.91,2.77s1.62,1.23,3.05,1.23c.95,0,1.69-.14,2.22-.41.53-.27.94-.67,1.23-1.18.29-.51.47-1.13.52-1.84.05-.71.08-1.51.08-2.39,0-1.02-.04-1.87-.11-2.52-.07-.66-.22-1.19-.44-1.59-.26-.4-.6-.73-1.02-.99-.42-.26-.98-.53-1.67-.82l-4.01-1.65c-2.42-.99-4.03-2.3-4.86-3.92-.82-1.63-1.23-3.67-1.23-6.12,0-1.46.2-2.85.6-4.17.4-1.32,1.01-2.45,1.81-3.4.77-.95,1.75-1.71,2.94-2.28,1.19-.57,2.61-.85,4.25-.85,1.39,0,2.66.26,3.81.77,1.15.51,2.15,1.19,2.99,2.03,1.68,1.76,2.52,3.77,2.52,6.04v2.74Z"/>
    <path class="cls-2" d="m444.43,210.07v-4.94l10.54-28.87h-9.99v-5.27h16.08v4.45l-10.76,29.36h10.76v5.27h-16.63Z"/>
    <path class="cls-2" d="m476.32,210.07v-16.52l-7.68-22.56h5.93l4.5,15.53h.11l4.5-15.53h5.93l-7.68,22.56v16.52h-5.6Z"/>
    <path class="cls-2" d="m498.99,210.07v-39.08h5.38l7.19,20.69h.11l7.14-20.69h5.43v39.08h-5.6v-23.76h-.11l-5.54,16.79h-2.8l-5.49-16.79h-.11v23.76h-5.6Z"/>
    <path class="cls-2" d="m553.87,198.93v2.42c0,1.21-.23,2.35-.69,3.43-.46,1.08-1.09,2.04-1.89,2.88-.81.84-1.75,1.51-2.83,2-1.08.49-2.24.74-3.48.74-1.06,0-2.14-.15-3.24-.44s-2.09-.8-2.96-1.54c-.88-.73-1.6-1.67-2.17-2.83-.57-1.15-.85-2.62-.85-4.42v-21.51c0-1.28.22-2.47.66-3.57s1.06-2.05,1.87-2.85,1.77-1.44,2.88-1.89c1.12-.46,2.35-.69,3.7-.69,2.63,0,4.77.86,6.42,2.58.8.84,1.44,1.84,1.89,2.99.46,1.15.69,2.41.69,3.76v2.2h-5.6v-1.87c0-1.1-.31-2.05-.93-2.85-.62-.8-1.46-1.21-2.52-1.21-1.39,0-2.31.43-2.77,1.29-.46.86-.69,1.95-.69,3.27v19.98c0,1.13.25,2.09.74,2.85.49.77,1.38,1.15,2.66,1.15.37,0,.76-.06,1.18-.19.42-.13.81-.34,1.18-.63.33-.29.6-.69.82-1.21.22-.51.33-1.15.33-1.92v-1.92h5.6Z"/>
    <path class="cls-2" d="m563.2,210.07v-4.94l10.54-28.87h-9.99v-5.27h16.08v4.45l-10.76,29.36h10.76v5.27h-16.63Z"/>
    <path class="cls-2" d="m587.35,210.07l8.73-39.08h4.67l8.73,39.08h-5.6l-1.65-8.4h-7.63l-1.65,8.4h-5.6Zm13.83-13.67l-2.74-14.16h-.11l-2.74,14.16h5.6Z"/>
    <path class="cls-2" d="m618.8,210.07v-39.08h5.6v17.84h.11l8.18-17.84h5.6l-7.63,15.64,9.06,23.44h-5.93l-6.37-17.34-3.02,5.65v11.69h-5.6Z"/>
    <path class="cls-2" d="m665.23,180.21c0-1.57.27-2.96.82-4.17.55-1.21,1.28-2.21,2.2-3.02.88-.77,1.87-1.35,2.99-1.76,1.12-.4,2.24-.6,3.38-.6s2.26.2,3.38.6c1.12.4,2.13.99,3.05,1.76.88.81,1.59,1.81,2.14,3.02.55,1.21.82,2.6.82,4.17v1.98h-5.6v-1.98c0-1.35-.38-2.35-1.12-2.99-.75-.64-1.64-.96-2.66-.96s-1.91.32-2.66.96c-.75.64-1.12,1.64-1.12,2.99v20.64c0,1.35.38,2.35,1.12,2.99.75.64,1.64.96,2.66.96s1.91-.32,2.66-.96c.75-.64,1.12-1.64,1.12-2.99v-7.35h-4.45v-4.94h10.04v12.29c0,1.65-.27,3.06-.82,4.23-.55,1.17-1.26,2.14-2.14,2.91-.92.81-1.93,1.41-3.05,1.81s-2.24.6-3.38.6-2.26-.2-3.38-.6-2.11-1.01-2.99-1.81c-.92-.77-1.65-1.74-2.2-2.91-.55-1.17-.82-2.58-.82-4.23v-20.64Z"/>
    <path class="cls-2" d="m695.53,210.07v-39.08h9c6.59,0,9.88,3.82,9.88,11.47,0,2.31-.36,4.26-1.07,5.87-.71,1.61-1.97,2.91-3.76,3.9l6.04,17.84h-5.93l-5.21-16.68h-3.35v16.68h-5.6Zm5.6-33.81v12.18h3.18c.99,0,1.77-.14,2.36-.41.58-.27,1.04-.67,1.37-1.18.29-.51.49-1.14.6-1.89.11-.75.16-1.62.16-2.61s-.05-1.86-.16-2.61c-.11-.75-.33-1.4-.66-1.95-.7-1.02-2.01-1.54-3.95-1.54h-2.91Z"/>
    <path class="cls-2" d="m725.16,180.21c0-1.57.27-2.96.82-4.17.55-1.21,1.28-2.21,2.2-3.02.88-.77,1.87-1.35,2.99-1.76,1.12-.4,2.24-.6,3.38-.6s2.26.2,3.38.6c1.12.4,2.13.99,3.05,1.76.88.81,1.59,1.81,2.14,3.02.55,1.21.82,2.6.82,4.17v20.64c0,1.65-.27,3.06-.82,4.23-.55,1.17-1.26,2.14-2.14,2.91-.92.81-1.93,1.41-3.05,1.81s-2.24.6-3.38.6-2.26-.2-3.38-.6-2.11-1.01-2.99-1.81c-.92-.77-1.65-1.74-2.2-2.91-.55-1.17-.82-2.58-.82-4.23v-20.64Zm5.6,20.64c0,1.35.38,2.35,1.12,2.99.75.64,1.64.96,2.66.96s1.91-.32,2.66-.96c.75-.64,1.12-1.64,1.12-2.99v-20.64c0-1.35-.38-2.35-1.12-2.99-.75-.64-1.64-.96-2.66-.96s-1.91.32-2.66.96c-.75.64-1.12,1.64-1.12,2.99v20.64Z"/>
    <path class="cls-2" d="m773.57,170.99v30.3c0,1.28-.23,2.46-.69,3.54-.46,1.08-1.11,2.04-1.95,2.88-.84.84-1.81,1.5-2.91,1.98s-2.27.71-3.51.71-2.41-.24-3.49-.71-2.04-1.13-2.88-1.98c-.84-.84-1.5-1.8-1.98-2.88-.48-1.08-.71-2.26-.71-3.54v-30.3h5.6v29.75c0,1.39.33,2.41.99,3.07.66.66,1.48.99,2.47.99s1.81-.33,2.47-.99.99-1.68.99-3.07v-29.75h5.6Z"/>
    <path class="cls-2" d="m785.43,210.07v-39.08h8.4c1.54,0,2.89.2,4.06.6,1.17.4,2.23,1.12,3.18,2.14.95,1.02,1.61,2.22,1.98,3.6.37,1.37.55,3.23.55,5.57,0,1.76-.1,3.24-.3,4.45s-.63,2.34-1.29,3.4c-.77,1.28-1.79,2.28-3.07,2.99-1.28.71-2.96,1.07-5.05,1.07h-2.85v15.26h-5.6Zm5.6-33.81v13.28h2.69c1.13,0,2.01-.16,2.63-.49.62-.33,1.08-.79,1.37-1.37.29-.55.47-1.23.52-2.03.05-.8.08-1.7.08-2.69,0-.91-.02-1.78-.05-2.61-.04-.82-.2-1.55-.49-2.17-.29-.62-.73-1.1-1.32-1.43-.59-.33-1.43-.49-2.52-.49h-2.91Z"/>
  </g>
  <g class="cls-1">
    <g>
      <path class="cls-2" d="m437.56,182.25h-5.6v-1.26c0-1.28-.3-2.39-.91-3.32-.6-.93-1.62-1.4-3.05-1.4-.77,0-1.39.15-1.87.44-.48.29-.86.66-1.15,1.1-.29.48-.49,1.02-.6,1.62-.11.6-.17,1.23-.17,1.89,0,.77.03,1.41.08,1.92.05.51.19.97.41,1.37.22.4.54.75.96,1.04.42.29,1,.59,1.73.88l4.28,1.7c1.24.48,2.25,1.03,3.02,1.67.77.64,1.37,1.38,1.81,2.22.4.88.68,1.88.82,2.99.15,1.12.22,2.39.22,3.81,0,1.65-.16,3.17-.49,4.58-.33,1.41-.86,2.61-1.59,3.59-.77,1.02-1.78,1.83-3.02,2.42-1.24.58-2.76.88-4.56.88-1.35,0-2.62-.24-3.79-.71-1.17-.48-2.18-1.13-3.02-1.98-.84-.84-1.51-1.82-2-2.94-.49-1.12-.74-2.33-.74-3.65v-2.09h5.6v1.76c0,1.02.3,1.95.91,2.77s1.62,1.23,3.05,1.23c.95,0,1.69-.14,2.22-.41.53-.27.94-.67,1.23-1.18.29-.51.47-1.13.52-1.84.05-.71.08-1.51.08-2.39,0-1.02-.04-1.87-.11-2.52-.07-.66-.22-1.19-.44-1.59-.26-.4-.6-.73-1.02-.99-.42-.26-.98-.53-1.67-.82l-4.01-1.65c-2.42-.99-4.03-2.3-4.86-3.92-.82-1.63-1.23-3.67-1.23-6.12,0-1.46.2-2.85.6-4.17.4-1.32,1.01-2.45,1.81-3.4.77-.95,1.75-1.71,2.94-2.28,1.19-.57,2.61-.85,4.25-.85,1.39,0,2.66.26,3.81.77,1.15.51,2.15,1.19,2.99,2.03,1.68,1.76,2.52,3.77,2.52,6.04v2.74Z"/>
      <path class="cls-2" d="m446.5,210.07v-4.94l10.54-28.87h-9.99v-5.27h16.08v4.45l-10.76,29.36h10.76v5.27h-16.63Z"/>
      <path class="cls-2" d="m478.39,210.07v-16.52l-7.68-22.56h5.93l4.5,15.53h.11l4.5-15.53h5.93l-7.68,22.56v16.52h-5.6Z"/>
      <path class="cls-2" d="m501.06,210.07v-39.08h5.38l7.19,20.69h.11l7.14-20.69h5.43v39.08h-5.6v-23.76h-.11l-5.54,16.79h-2.8l-5.49-16.79h-.11v23.76h-5.6Z"/>
      <path class="cls-2" d="m555.94,198.93v2.42c0,1.21-.23,2.35-.69,3.43-.46,1.08-1.09,2.04-1.89,2.88-.81.84-1.75,1.51-2.83,2-1.08.49-2.24.74-3.48.74-1.06,0-2.14-.15-3.24-.44s-2.09-.8-2.96-1.54c-.88-.73-1.6-1.67-2.17-2.83-.57-1.15-.85-2.62-.85-4.42v-21.51c0-1.28.22-2.47.66-3.57s1.06-2.05,1.87-2.85,1.77-1.44,2.88-1.89c1.12-.46,2.35-.69,3.7-.69,2.63,0,4.77.86,6.42,2.58.8.84,1.44,1.84,1.89,2.99.46,1.15.69,2.41.69,3.76v2.2h-5.6v-1.87c0-1.1-.31-2.05-.93-2.85-.62-.8-1.46-1.21-2.52-1.21-1.39,0-2.31.43-2.77,1.29-.46.86-.69,1.95-.69,3.27v19.98c0,1.13.25,2.09.74,2.85.49.77,1.38,1.15,2.66,1.15.37,0,.76-.06,1.18-.19.42-.13.81-.34,1.18-.63.33-.29.6-.69.82-1.21.22-.51.33-1.15.33-1.92v-1.92h5.6Z"/>
      <path class="cls-2" d="m565.27,210.07v-4.94l10.54-28.87h-9.99v-5.27h16.08v4.45l-10.76,29.36h10.76v5.27h-16.63Z"/>
      <path class="cls-2" d="m589.42,210.07l8.73-39.08h4.67l8.73,39.08h-5.6l-1.65-8.4h-7.63l-1.65,8.4h-5.6Zm13.83-13.67l-2.74-14.16h-.11l-2.74,14.16h5.6Z"/>
      <path class="cls-2" d="m620.87,210.07v-39.08h5.6v17.84h.11l8.18-17.84h5.6l-7.63,15.64,9.06,23.44h-5.93l-6.37-17.34-3.02,5.65v11.69h-5.6Z"/>
      <path class="cls-2" d="m667.3,180.21c0-1.57.27-2.96.82-4.17.55-1.21,1.28-2.21,2.2-3.02.88-.77,1.87-1.35,2.99-1.76,1.12-.4,2.24-.6,3.38-.6s2.26.2,3.38.6c1.12.4,2.13.99,3.05,1.76.88.81,1.59,1.81,2.14,3.02.55,1.21.82,2.6.82,4.17v1.98h-5.6v-1.98c0-1.35-.38-2.35-1.12-2.99-.75-.64-1.64-.96-2.66-.96s-1.91.32-2.66.96c-.75.64-1.12,1.64-1.12,2.99v20.64c0,1.35.38,2.35,1.12,2.99.75.64,1.64.96,2.66.96s1.91-.32,2.66-.96c.75-.64,1.12-1.64,1.12-2.99v-7.35h-4.45v-4.94h10.04v12.29c0,1.65-.27,3.06-.82,4.23-.55,1.17-1.26,2.14-2.14,2.91-.92.81-1.93,1.41-3.05,1.81s-2.24.6-3.38.6-2.26-.2-3.38-.6-2.11-1.01-2.99-1.81c-.92-.77-1.65-1.74-2.2-2.91-.55-1.17-.82-2.58-.82-4.23v-20.64Z"/>
      <path class="cls-2" d="m697.59,210.07v-39.08h9c6.59,0,9.88,3.82,9.88,11.47,0,2.31-.36,4.26-1.07,5.87-.71,1.61-1.97,2.91-3.76,3.9l6.04,17.84h-5.93l-5.21-16.68h-3.35v16.68h-5.6Zm5.6-33.81v12.18h3.18c.99,0,1.77-.14,2.36-.41.58-.27,1.04-.67,1.37-1.18.29-.51.49-1.14.6-1.89.11-.75.16-1.62.16-2.61s-.05-1.86-.16-2.61c-.11-.75-.33-1.4-.66-1.95-.7-1.02-2.01-1.54-3.95-1.54h-2.91Z"/>
      <path class="cls-2" d="m727.23,180.21c0-1.57.27-2.96.82-4.17.55-1.21,1.28-2.21,2.2-3.02.88-.77,1.87-1.35,2.99-1.76,1.12-.4,2.24-.6,3.38-.6s2.26.2,3.38.6c1.12.4,2.13.99,3.05,1.76.88.81,1.59,1.81,2.14,3.02.55,1.21.82,2.6.82,4.17v20.64c0,1.65-.27,3.06-.82,4.23-.55,1.17-1.26,2.14-2.14,2.91-.92.81-1.93,1.41-3.05,1.81s-2.24.6-3.38.6-2.26-.2-3.38-.6-2.11-1.01-2.99-1.81c-.92-.77-1.65-1.74-2.2-2.91-.55-1.17-.82-2.58-.82-4.23v-20.64Zm5.6,20.64c0,1.35.38,2.35,1.12,2.99.75.64,1.64.96,2.66.96s1.91-.32,2.66-.96c.75-.64,1.12-1.64,1.12-2.99v-20.64c0-1.35-.38-2.35-1.12-2.99-.75-.64-1.64-.96-2.66-.96s-1.91.32-2.66.96c-.75.64-1.12,1.64-1.12,2.99v20.64Z"/>
      <path class="cls-2" d="m775.64,170.99v30.3c0,1.28-.23,2.46-.69,3.54-.46,1.08-1.11,2.04-1.95,2.88-.84.84-1.81,1.5-2.91,1.98s-2.27.71-3.51.71-2.41-.24-3.49-.71-2.04-1.13-2.88-1.98c-.84-.84-1.5-1.8-1.98-2.88-.48-1.08-.71-2.26-.71-3.54v-30.3h5.6v29.75c0,1.39.33,2.41.99,3.07.66.66,1.48.99,2.47.99s1.81-.33,2.47-.99.99-1.68.99-3.07v-29.75h5.6Z"/>
      <path class="cls-2" d="m787.49,210.07v-39.08h8.4c1.54,0,2.89.2,4.06.6,1.17.4,2.23,1.12,3.18,2.14.95,1.02,1.61,2.22,1.98,3.6.37,1.37.55,3.23.55,5.57,0,1.76-.1,3.24-.3,4.45s-.63,2.34-1.29,3.4c-.77,1.28-1.79,2.28-3.07,2.99-1.28.71-2.96,1.07-5.05,1.07h-2.85v15.26h-5.6Zm5.6-33.81v13.28h2.69c1.13,0,2.01-.16,2.63-.49.62-.33,1.08-.79,1.37-1.37.29-.55.47-1.23.52-2.03.05-.8.08-1.7.08-2.69,0-.91-.02-1.78-.05-2.61-.04-.82-.2-1.55-.49-2.17-.29-.62-.73-1.1-1.32-1.43-.59-.33-1.43-.49-2.52-.49h-2.91Z"/>
    </g>
  </g>
</svg>