<?xml version="1.0" encoding="UTF-8"?>
<svg id="Layer_1" data-name="Layer 1" xmlns="http://www.w3.org/2000/svg" viewBox="0 0 413 52">
  <defs>
    <style>
      .cls-1 {
        opacity: .5;
      }

      .cls-2 {
        fill: #10284b;
        stroke-width: 0px;
      }
    </style>
  </defs>
  <g>
    <path class="cls-2" d="m26.39,17.9h-5.75v-1.3c0-1.32-.31-2.45-.93-3.41-.62-.96-1.66-1.44-3.13-1.44-.79,0-1.43.15-1.92.45-.49.3-.88.68-1.18,1.13-.3.49-.51,1.04-.62,1.66-.11.62-.17,1.27-.17,1.95,0,.79.03,1.45.08,1.97.06.53.2,1,.42,1.41.23.41.55.77.99,1.07.43.3,1.02.6,1.78.9l4.4,1.75c1.28.49,2.31,1.06,3.1,1.72.79.66,1.41,1.42,1.86,2.28.41.9.69,1.93.85,3.07.15,1.15.23,2.45.23,3.92,0,1.69-.17,3.26-.51,4.71-.34,1.45-.88,2.68-1.64,3.69-.79,1.05-1.82,1.88-3.1,2.48-1.28.6-2.84.9-4.68.9-1.39,0-2.69-.24-3.89-.73-1.2-.49-2.24-1.16-3.1-2.03-.86-.86-1.55-1.87-2.06-3.02-.51-1.15-.76-2.4-.76-3.75v-2.14h5.75v1.8c0,1.05.31,2,.93,2.85s1.66,1.27,3.13,1.27c.98,0,1.74-.14,2.28-.42.54-.28.97-.69,1.27-1.21.3-.53.48-1.16.54-1.89.06-.73.08-1.55.08-2.45,0-1.05-.04-1.92-.11-2.59-.08-.68-.23-1.22-.45-1.64-.26-.41-.61-.75-1.04-1.01-.43-.26-1.01-.54-1.72-.85l-4.12-1.69c-2.48-1.01-4.14-2.36-4.99-4.03-.85-1.67-1.27-3.77-1.27-6.29,0-1.5.21-2.93.62-4.28.41-1.35,1.03-2.52,1.86-3.5.79-.98,1.79-1.76,3.02-2.34,1.22-.58,2.68-.87,4.37-.87,1.43,0,2.73.26,3.92.79,1.18.53,2.21,1.22,3.07,2.09,1.73,1.8,2.59,3.87,2.59,6.2v2.82Z"/>
    <path class="cls-2" d="m35.58,46.49v-5.07l10.82-29.66h-10.26v-5.41h16.52v4.57l-11.05,30.16h11.05v5.41h-17.08Z"/>
    <path class="cls-2" d="m68.34,46.49v-16.97l-7.89-23.17h6.09l4.62,15.96h.11l4.62-15.96h6.09l-7.89,23.17v16.97h-5.75Z"/>
    <path class="cls-2" d="m91.62,46.49V6.34h5.53l7.39,21.26h.11l7.33-21.26h5.58v40.14h-5.75v-24.41h-.11l-5.69,17.25h-2.88l-5.64-17.25h-.11v24.41h-5.75Z"/>
    <path class="cls-2" d="m148,35.04v2.48c0,1.24-.24,2.42-.7,3.52-.47,1.11-1.12,2.1-1.95,2.96-.83.87-1.8,1.55-2.9,2.06-1.11.51-2.3.76-3.58.76-1.09,0-2.2-.15-3.33-.45s-2.14-.83-3.04-1.58c-.9-.75-1.64-1.72-2.23-2.9-.58-1.18-.87-2.7-.87-4.54V15.25c0-1.32.23-2.54.68-3.66s1.09-2.1,1.92-2.93,1.81-1.47,2.96-1.95c1.15-.47,2.41-.7,3.81-.7,2.71,0,4.91.88,6.6,2.65.83.87,1.47,1.89,1.95,3.07.47,1.18.7,2.47.7,3.86v2.26h-5.75v-1.92c0-1.13-.32-2.1-.96-2.93-.64-.83-1.5-1.24-2.59-1.24-1.43,0-2.38.44-2.85,1.32-.47.88-.7,2-.7,3.35v20.52c0,1.17.25,2.14.76,2.93.51.79,1.42,1.18,2.73,1.18.38,0,.78-.07,1.21-.2.43-.13.84-.35,1.21-.65.34-.3.62-.71.85-1.24.23-.53.34-1.18.34-1.97v-1.97h5.75Z"/>
    <path class="cls-2" d="m157.59,46.49v-5.07l10.82-29.66h-10.26v-5.41h16.52v4.57l-11.05,30.16h11.05v5.41h-17.08Z"/>
    <path class="cls-2" d="m182.39,46.49l8.96-40.14h4.79l8.96,40.14h-5.75l-1.69-8.63h-7.84l-1.69,8.63h-5.75Zm14.21-14.04l-2.82-14.55h-.11l-2.82,14.55h5.75Z"/>
    <path class="cls-2" d="m214.7,46.49V6.34h5.75v18.32h.11l8.4-18.32h5.75l-7.84,16.07,9.3,24.07h-6.09l-6.54-17.82-3.1,5.81v12.01h-5.75Z"/>
    <path class="cls-2" d="m262.4,15.81c0-1.62.28-3.04.85-4.29.56-1.24,1.32-2.27,2.26-3.1.9-.79,1.93-1.39,3.07-1.8,1.15-.41,2.3-.62,3.47-.62s2.32.21,3.47.62c1.15.41,2.19,1.02,3.13,1.8.9.83,1.64,1.86,2.2,3.1.56,1.24.85,2.67.85,4.29v2.03h-5.75v-2.03c0-1.39-.39-2.41-1.16-3.07-.77-.66-1.68-.99-2.73-.99s-1.96.33-2.73.99c-.77.66-1.16,1.68-1.16,3.07v21.2c0,1.39.39,2.42,1.16,3.07.77.66,1.68.99,2.73.99s1.96-.33,2.73-.99c.77-.66,1.16-1.68,1.16-3.07v-7.56h-4.57v-5.07h10.32v12.63c0,1.69-.28,3.14-.85,4.34-.56,1.2-1.3,2.2-2.2,2.99-.94.83-1.98,1.45-3.13,1.86s-2.3.62-3.47.62-2.32-.21-3.47-.62-2.17-1.03-3.07-1.86c-.94-.79-1.69-1.79-2.26-2.99-.56-1.2-.85-2.65-.85-4.34V15.81Z"/>
    <path class="cls-2" d="m293.52,46.49V6.34h9.25c6.77,0,10.15,3.93,10.15,11.78,0,2.37-.37,4.38-1.1,6.03-.73,1.65-2.02,2.99-3.86,4l6.2,18.32h-6.09l-5.36-17.14h-3.44v17.14h-5.75Zm5.75-34.73v12.52h3.27c1.01,0,1.82-.14,2.42-.42.6-.28,1.07-.69,1.41-1.21.3-.53.51-1.17.62-1.95.11-.77.17-1.66.17-2.68s-.06-1.91-.17-2.68c-.11-.77-.34-1.44-.68-2-.71-1.05-2.07-1.58-4.06-1.58h-2.99Z"/>
    <path class="cls-2" d="m323.96,15.81c0-1.62.28-3.04.85-4.29.56-1.24,1.32-2.27,2.26-3.1.9-.79,1.93-1.39,3.07-1.8,1.15-.41,2.3-.62,3.47-.62s2.32.21,3.47.62c1.15.41,2.19,1.02,3.13,1.8.9.83,1.64,1.86,2.2,3.1.56,1.24.85,2.67.85,4.29v21.2c0,1.69-.28,3.14-.85,4.34-.56,1.2-1.3,2.2-2.2,2.99-.94.83-1.98,1.45-3.13,1.86s-2.3.62-3.47.62-2.32-.21-3.47-.62-2.17-1.03-3.07-1.86c-.94-.79-1.69-1.79-2.26-2.99-.56-1.2-.85-2.65-.85-4.34V15.81Zm5.75,21.2c0,1.39.39,2.42,1.16,3.07.77.66,1.68.99,2.73.99s1.96-.33,2.73-.99c.77-.66,1.16-1.68,1.16-3.07V15.81c0-1.39-.39-2.41-1.16-3.07-.77-.66-1.68-.99-2.73-.99s-1.96.33-2.73.99c-.77.66-1.16,1.68-1.16,3.07v21.2Z"/>
    <path class="cls-2" d="m373.69,6.34v31.12c0,1.32-.23,2.53-.7,3.64-.47,1.11-1.14,2.1-2,2.96-.86.86-1.86,1.54-2.99,2.03s-2.33.73-3.61.73-2.47-.24-3.58-.73-2.1-1.16-2.96-2.03c-.87-.86-1.54-1.85-2.03-2.96-.49-1.11-.73-2.32-.73-3.64V6.34h5.75v30.56c0,1.43.34,2.48,1.02,3.16.68.68,1.52,1.01,2.54,1.01s1.86-.34,2.54-1.01,1.02-1.73,1.02-3.16V6.34h5.75Z"/>
    <path class="cls-2" d="m385.87,46.49V6.34h8.63c1.58,0,2.97.21,4.17.62,1.2.41,2.29,1.15,3.27,2.2.98,1.05,1.65,2.28,2.03,3.69.38,1.41.56,3.32.56,5.72,0,1.8-.1,3.33-.31,4.57s-.65,2.41-1.33,3.5c-.79,1.32-1.84,2.34-3.16,3.07-1.32.73-3.04,1.1-5.19,1.1h-2.93v15.67h-5.75Zm5.75-34.73v13.64h2.76c1.16,0,2.07-.17,2.71-.51.64-.34,1.11-.81,1.41-1.41.3-.56.48-1.26.54-2.09.06-.83.08-1.75.08-2.76,0-.94-.02-1.83-.06-2.68-.04-.85-.21-1.59-.51-2.23-.3-.64-.75-1.13-1.35-1.47-.6-.34-1.47-.51-2.59-.51h-2.99Z"/>
  </g>
  <g class="cls-1">
    <g>
      <path class="cls-2" d="m28.51,17.9h-5.75v-1.3c0-1.32-.31-2.45-.93-3.41-.62-.96-1.66-1.44-3.13-1.44-.79,0-1.43.15-1.92.45-.49.3-.88.68-1.18,1.13-.3.49-.51,1.04-.62,1.66-.11.62-.17,1.27-.17,1.95,0,.79.03,1.45.08,1.97.06.53.2,1,.42,1.41.23.41.55.77.99,1.07.43.3,1.02.6,1.78.9l4.4,1.75c1.28.49,2.31,1.06,3.1,1.72.79.66,1.41,1.42,1.86,2.28.41.9.69,1.93.85,3.07.15,1.15.23,2.45.23,3.92,0,1.69-.17,3.26-.51,4.71-.34,1.45-.88,2.68-1.64,3.69-.79,1.05-1.82,1.88-3.1,2.48-1.28.6-2.84.9-4.68.9-1.39,0-2.69-.24-3.89-.73-1.2-.49-2.24-1.16-3.1-2.03-.86-.86-1.55-1.87-2.06-3.02-.51-1.15-.76-2.4-.76-3.75v-2.14h5.75v1.8c0,1.05.31,2,.93,2.85s1.66,1.27,3.13,1.27c.98,0,1.74-.14,2.28-.42.54-.28.97-.69,1.27-1.21.3-.53.48-1.16.54-1.89.06-.73.08-1.55.08-2.45,0-1.05-.04-1.92-.11-2.59-.08-.68-.23-1.22-.45-1.64-.26-.41-.61-.75-1.04-1.01-.43-.26-1.01-.54-1.72-.85l-4.12-1.69c-2.48-1.01-4.14-2.36-4.99-4.03-.85-1.67-1.27-3.77-1.27-6.29,0-1.5.21-2.93.62-4.28.41-1.35,1.03-2.52,1.86-3.5.79-.98,1.79-1.76,3.02-2.34,1.22-.58,2.68-.87,4.37-.87,1.43,0,2.73.26,3.92.79,1.18.53,2.21,1.22,3.07,2.09,1.73,1.8,2.59,3.87,2.59,6.2v2.82Z"/>
      <path class="cls-2" d="m37.7,46.49v-5.07l10.82-29.66h-10.26v-5.41h16.52v4.57l-11.05,30.16h11.05v5.41h-17.08Z"/>
      <path class="cls-2" d="m70.46,46.49v-16.97l-7.89-23.17h6.09l4.62,15.96h.11l4.62-15.96h6.09l-7.89,23.17v16.97h-5.75Z"/>
      <path class="cls-2" d="m93.75,46.49V6.34h5.53l7.39,21.26h.11l7.33-21.26h5.58v40.14h-5.75v-24.41h-.11l-5.69,17.25h-2.88l-5.64-17.25h-.11v24.41h-5.75Z"/>
      <path class="cls-2" d="m150.13,35.04v2.48c0,1.24-.24,2.42-.7,3.52-.47,1.11-1.12,2.1-1.95,2.96-.83.87-1.8,1.55-2.9,2.06-1.11.51-2.3.76-3.58.76-1.09,0-2.2-.15-3.33-.45s-2.14-.83-3.04-1.58c-.9-.75-1.64-1.72-2.23-2.9-.58-1.18-.87-2.7-.87-4.54V15.25c0-1.32.23-2.54.68-3.66s1.09-2.1,1.92-2.93,1.81-1.47,2.96-1.95c1.15-.47,2.41-.7,3.81-.7,2.71,0,4.91.88,6.6,2.65.83.87,1.47,1.89,1.95,3.07.47,1.18.7,2.47.7,3.86v2.26h-5.75v-1.92c0-1.13-.32-2.1-.96-2.93-.64-.83-1.5-1.24-2.59-1.24-1.43,0-2.38.44-2.85,1.32-.47.88-.7,2-.7,3.35v20.52c0,1.17.25,2.14.76,2.93.51.79,1.42,1.18,2.73,1.18.38,0,.78-.07,1.21-.2.43-.13.84-.35,1.21-.65.34-.3.62-.71.85-1.24.23-.53.34-1.18.34-1.97v-1.97h5.75Z"/>
      <path class="cls-2" d="m159.71,46.49v-5.07l10.82-29.66h-10.26v-5.41h16.52v4.57l-11.05,30.16h11.05v5.41h-17.08Z"/>
      <path class="cls-2" d="m184.52,46.49l8.96-40.14h4.79l8.96,40.14h-5.75l-1.69-8.63h-7.84l-1.69,8.63h-5.75Zm14.21-14.04l-2.82-14.55h-.11l-2.82,14.55h5.75Z"/>
      <path class="cls-2" d="m216.82,46.49V6.34h5.75v18.32h.11l8.4-18.32h5.75l-7.84,16.07,9.3,24.07h-6.09l-6.54-17.82-3.1,5.81v12.01h-5.75Z"/>
      <path class="cls-2" d="m264.52,15.81c0-1.62.28-3.04.85-4.29.56-1.24,1.32-2.27,2.26-3.1.9-.79,1.93-1.39,3.07-1.8,1.15-.41,2.3-.62,3.47-.62s2.32.21,3.47.62c1.15.41,2.19,1.02,3.13,1.8.9.83,1.64,1.86,2.2,3.1.56,1.24.85,2.67.85,4.29v2.03h-5.75v-2.03c0-1.39-.39-2.41-1.16-3.07-.77-.66-1.68-.99-2.73-.99s-1.96.33-2.73.99c-.77.66-1.16,1.68-1.16,3.07v21.2c0,1.39.39,2.42,1.16,3.07.77.66,1.68.99,2.73.99s1.96-.33,2.73-.99c.77-.66,1.16-1.68,1.16-3.07v-7.56h-4.57v-5.07h10.32v12.63c0,1.69-.28,3.14-.85,4.34-.56,1.2-1.3,2.2-2.2,2.99-.94.83-1.98,1.45-3.13,1.86s-2.3.62-3.47.62-2.32-.21-3.47-.62-2.17-1.03-3.07-1.86c-.94-.79-1.69-1.79-2.26-2.99-.56-1.2-.85-2.65-.85-4.34V15.81Z"/>
      <path class="cls-2" d="m295.64,46.49V6.34h9.25c6.77,0,10.15,3.93,10.15,11.78,0,2.37-.37,4.38-1.1,6.03-.73,1.65-2.02,2.99-3.86,4l6.2,18.32h-6.09l-5.36-17.14h-3.44v17.14h-5.75Zm5.75-34.73v12.52h3.27c1.01,0,1.82-.14,2.42-.42.6-.28,1.07-.69,1.41-1.21.3-.53.51-1.17.62-1.95.11-.77.17-1.66.17-2.68s-.06-1.91-.17-2.68c-.11-.77-.34-1.44-.68-2-.71-1.05-2.07-1.58-4.06-1.58h-2.99Z"/>
      <path class="cls-2" d="m326.09,15.81c0-1.62.28-3.04.85-4.29.56-1.24,1.32-2.27,2.26-3.1.9-.79,1.93-1.39,3.07-1.8,1.15-.41,2.3-.62,3.47-.62s2.32.21,3.47.62c1.15.41,2.19,1.02,3.13,1.8.9.83,1.64,1.86,2.2,3.1.56,1.24.85,2.67.85,4.29v21.2c0,1.69-.28,3.14-.85,4.34-.56,1.2-1.3,2.2-2.2,2.99-.94.83-1.98,1.45-3.13,1.86s-2.3.62-3.47.62-2.32-.21-3.47-.62-2.17-1.03-3.07-1.86c-.94-.79-1.69-1.79-2.26-2.99-.56-1.2-.85-2.65-.85-4.34V15.81Zm5.75,21.2c0,1.39.39,2.42,1.16,3.07.77.66,1.68.99,2.73.99s1.96-.33,2.73-.99c.77-.66,1.16-1.68,1.16-3.07V15.81c0-1.39-.39-2.41-1.16-3.07-.77-.66-1.68-.99-2.73-.99s-1.96.33-2.73.99c-.77.66-1.16,1.68-1.16,3.07v21.2Z"/>
      <path class="cls-2" d="m375.82,6.34v31.12c0,1.32-.23,2.53-.7,3.64-.47,1.11-1.14,2.1-2,2.96-.86.86-1.86,1.54-2.99,2.03s-2.33.73-3.61.73-2.47-.24-3.58-.73-2.1-1.16-2.96-2.03c-.87-.86-1.54-1.85-2.03-2.96-.49-1.11-.73-2.32-.73-3.64V6.34h5.75v30.56c0,1.43.34,2.48,1.02,3.16.68.68,1.52,1.01,2.54,1.01s1.86-.34,2.54-1.01,1.02-1.73,1.02-3.16V6.34h5.75Z"/>
      <path class="cls-2" d="m388,46.49V6.34h8.63c1.58,0,2.97.21,4.17.62,1.2.41,2.29,1.15,3.27,2.2.98,1.05,1.65,2.28,2.03,3.69.38,1.41.56,3.32.56,5.72,0,1.8-.1,3.33-.31,4.57s-.65,2.41-1.33,3.5c-.79,1.32-1.84,2.34-3.16,3.07-1.32.73-3.04,1.1-5.19,1.1h-2.93v15.67h-5.75Zm5.75-34.73v13.64h2.76c1.16,0,2.07-.17,2.71-.51.64-.34,1.11-.81,1.41-1.41.3-.56.48-1.26.54-2.09.06-.83.08-1.75.08-2.76,0-.94-.02-1.83-.06-2.68-.04-.85-.21-1.59-.51-2.23-.3-.64-.75-1.13-1.35-1.47-.6-.34-1.47-.51-2.59-.51h-2.99Z"/>
    </g>
  </g>
</svg>